<svg width="378" height="52" viewBox="0 0 378 52" fill="none" xmlns="http://www.w3.org/2000/svg">
<path d="M219.29 46.4596L203.19 23.5496L219.29 0.639648H377.36V46.4596H219.29Z" fill="#FFB653"/>
<path d="M376.73 1.28V45.83H219.62L203.97 23.56L219.62 1.29H376.73M378 0H218.96L202.41 23.55L218.96 47.1H378V0Z" fill="#24272C"/>
<path d="M0 0V47.09H91.79L92.61 45.82H1.27V1.28H376.73V45.82H184.05V47.09H378V0H0Z" fill="#24272C"/>
<path d="M220.09 40.1096L220.95 36.4996H219.09L219.66 34.0396H221.53L222.2 31.2196H220.32L220.9 28.7596H222.77L223.65 25.0996H226.25L225.38 28.7596H227.98L228.85 25.0996H231.46L230.59 28.7596H232.43L231.87 31.2196H230.01L229.36 34.0296H231.22L230.64 36.5196H228.77L227.89 40.1196H225.29L226.15 36.5196H223.56L222.7 40.1196H220.09V40.1096ZM224.13 34.0396H226.76L227.4 31.2196H224.78L224.13 34.0396Z" fill="#24272C"/>
<path d="M235.8 40.1101V15.9401L228.46 18.5401L226.42 12.5201L242.36 6.87012H242.87V40.1001H235.81L235.8 40.1101Z" fill="#24272C"/>
<path d="M255.18 16.5296L258.73 6.80957H256.18L253.9 13.5996L251.57 6.80957H248.98L252.56 16.5296H255.18Z" fill="#24272C"/>
<path d="M263.22 12.4596H267.02V10.6196H263.22V8.80957H267.74V6.80957H260.92V16.5296H267.8V14.5096H263.22V12.4596Z" fill="#24272C"/>
<path d="M272.54 16.5296H274.86V8.91957H277.44V6.80957H269.95V8.91957H272.54V16.5296Z" fill="#24272C"/>
<path d="M286.69 14.5096H282.11V12.4596H285.91V10.6196H282.11V8.80957H286.64V6.80957H279.81V16.5296H286.69V14.5096Z" fill="#24272C"/>
<path d="M291.6 12.9498H292.45L294.61 16.5198H297.34L294.72 12.4798C295.12 12.3598 295.47 12.1898 295.79 11.9398C296.1 11.6998 296.35 11.3998 296.53 11.0298C296.71 10.6698 296.8 10.2498 296.8 9.76981C296.8 9.14981 296.65 8.60981 296.36 8.16981C296.07 7.72981 295.65 7.38981 295.11 7.14981C294.57 6.90981 293.94 6.7998 293.22 6.7998H289.28V16.5098H291.58V12.9398L291.6 12.9498ZM291.6 8.7098H293.01C293.49 8.7098 293.85 8.80981 294.11 8.99981C294.37 9.19981 294.49 9.50981 294.49 9.92981C294.49 10.3498 294.36 10.6398 294.08 10.8298C293.81 11.0198 293.43 11.1098 292.95 11.1098H291.59V8.7098H291.6Z" fill="#24272C"/>
<path d="M302.08 6.80957H299.78V16.5196H302.08V6.80957Z" fill="#24272C"/>
<path d="M307.69 10.4896L311.69 16.5296H313.96V6.80957H311.73V12.7696L307.73 6.80957H305.46V16.5296H307.69V10.4896Z" fill="#24272C"/>
<path d="M319.43 14.5596H322.91L323.6 16.5196H326.19L322.53 6.80957H319.86L316.23 16.5196H318.75L319.42 14.5596H319.43ZM321.16 9.27957L322.38 12.6396H319.95L321.16 9.27957Z" fill="#24272C"/>
<path d="M330.77 12.9498H331.62L333.78 16.5198H336.51L333.89 12.4798C334.29 12.3598 334.64 12.1898 334.96 11.9398C335.27 11.6998 335.52 11.3998 335.7 11.0298C335.88 10.6698 335.97 10.2498 335.97 9.76981C335.97 9.14981 335.82 8.60981 335.53 8.16981C335.24 7.72981 334.82 7.38981 334.28 7.14981C333.74 6.90981 333.11 6.7998 332.39 6.7998H328.45V16.5098H330.75V12.9398L330.77 12.9498ZM330.77 8.7098H332.18C332.66 8.7098 333.02 8.80981 333.28 8.99981C333.54 9.19981 333.66 9.50981 333.66 9.92981C333.66 10.3498 333.53 10.6398 333.25 10.8298C332.98 11.0198 332.6 11.1098 332.12 11.1098H330.76V8.7098H330.77Z" fill="#24272C"/>
<path d="M341.25 6.80957H338.95V16.5196H341.25V6.80957Z" fill="#24272C"/>
<path d="M346.72 14.5596H350.2L350.89 16.5196H353.48L349.82 6.80957H347.15L343.52 16.5196H346.04L346.71 14.5596H346.72ZM348.45 9.27957L349.67 12.6396H347.24L348.45 9.27957Z" fill="#24272C"/>
<path d="M357.98 10.4896L361.98 16.5296H364.26V6.80957H362.02V12.7696L358.03 6.80957H355.75V16.5296H357.98V10.4896Z" fill="#24272C"/>
<path d="M257.43 24.9097C257.61 24.5497 257.7 24.1297 257.7 23.6497C257.7 23.0297 257.55 22.4897 257.26 22.0497C256.97 21.6097 256.55 21.2697 256.01 21.0297C255.47 20.7897 254.84 20.6797 254.12 20.6797H250.18V30.3897H252.48V26.8197H253.33L255.49 30.3897H258.22L255.6 26.3497C256 26.2297 256.35 26.0597 256.67 25.8097C256.98 25.5697 257.23 25.2697 257.41 24.8997L257.43 24.9097ZM254.97 24.6997C254.7 24.8897 254.32 24.9797 253.84 24.9797H252.48V22.5797H253.89C254.37 22.5797 254.73 22.6797 254.99 22.8697C255.25 23.0697 255.37 23.3797 255.37 23.7997C255.37 24.2197 255.24 24.5097 254.96 24.6997H254.97Z" fill="#24272C"/>
<path d="M266.88 28.3795H262.3V26.3395H266.09V24.4895H262.3V22.6895H266.82V20.6895H259.99V30.3995H266.88V28.3795Z" fill="#24272C"/>
<path d="M277.1 29.46L276.05 27.52C275.67 27.82 275.26 28.03 274.83 28.16C274.4 28.29 273.97 28.36 273.54 28.36C272.93 28.36 272.41 28.25 271.98 28.02C271.55 27.8 271.21 27.47 270.98 27.05C270.75 26.63 270.63 26.12 270.63 25.54C270.63 25.11 270.69 24.71 270.82 24.37C270.95 24.02 271.14 23.73 271.39 23.48C271.64 23.23 271.94 23.05 272.29 22.91C272.64 22.77 273.05 22.71 273.5 22.71C273.95 22.71 274.38 22.78 274.75 22.91C275.12 23.04 275.45 23.25 275.72 23.53L276.87 21.64C276.43 21.27 275.93 20.98 275.38 20.77C274.83 20.56 274.15 20.46 273.34 20.46C272.59 20.46 271.9 20.58 271.28 20.83C270.66 21.08 270.11 21.43 269.65 21.88C269.19 22.33 268.83 22.87 268.58 23.49C268.33 24.11 268.2 24.8 268.2 25.55C268.2 26.58 268.42 27.47 268.85 28.22C269.28 28.97 269.88 29.56 270.64 29.97C271.41 30.38 272.29 30.59 273.3 30.59C274.13 30.59 274.86 30.48 275.49 30.27C276.11 30.06 276.65 29.78 277.1 29.43V29.46Z" fill="#24272C"/>
<path d="M283 30.6095C283.74 30.6095 284.43 30.4795 285.06 30.2195C285.69 29.9595 286.24 29.6095 286.71 29.1495C287.18 28.6895 287.54 28.1595 287.8 27.5395C288.06 26.9195 288.19 26.2595 288.19 25.5395C288.19 24.8195 288.06 24.1695 287.8 23.5595C287.54 22.9495 287.18 22.4095 286.71 21.9495C286.24 21.4895 285.69 21.1295 285.06 20.8695C284.43 20.6095 283.74 20.4795 283 20.4795C282.26 20.4795 281.57 20.6095 280.93 20.8595C280.29 21.1095 279.75 21.4695 279.28 21.9295C278.82 22.3895 278.45 22.9195 278.2 23.5395C277.95 24.1595 277.82 24.8195 277.82 25.5395C277.82 26.2595 277.95 26.9195 278.2 27.5395C278.45 28.1595 278.82 28.6895 279.28 29.1495C279.75 29.6095 280.29 29.9695 280.93 30.2195C281.56 30.4795 282.25 30.6095 283 30.6095ZM280.23 25.5495C280.23 25.1095 280.3 24.7095 280.44 24.3495C280.58 23.9895 280.77 23.6895 281.02 23.4295C281.27 23.1695 281.56 22.9795 281.9 22.8495C282.24 22.7195 282.61 22.6495 283 22.6495C283.53 22.6495 284.01 22.7695 284.42 23.0095C284.84 23.2495 285.17 23.5895 285.41 24.0195C285.65 24.4595 285.77 24.9695 285.77 25.5495C285.77 25.9895 285.7 26.3895 285.57 26.7495C285.43 27.1095 285.24 27.4095 284.99 27.6695C284.74 27.9295 284.45 28.1195 284.11 28.2495C283.77 28.3795 283.4 28.4495 283.01 28.4495C282.48 28.4495 282.01 28.3295 281.59 28.0895C281.17 27.8495 280.84 27.5095 280.6 27.0795C280.36 26.6395 280.24 26.1295 280.24 25.5495H280.23Z" fill="#24272C"/>
<path d="M300.98 30.3995V20.6895H298.78L295.71 26.0395L292.49 20.6895H290.28V30.3995H292.39L292.35 24.4395L294.86 28.5795H296.4L298.78 24.4895L298.75 30.3995H300.98Z" fill="#24272C"/>
<path d="M314.39 30.3995V20.6895H312.18L309.12 26.0395L305.9 20.6895H303.68V30.3995H305.79L305.76 24.4395L308.27 28.5795H309.8L312.19 24.4895L312.15 30.3995H314.39Z" fill="#24272C"/>
<path d="M323.92 22.6895V20.6895H317.09V30.3995H323.97V28.3795H319.39V26.3395H323.19V24.4895H319.39V22.6895H323.92Z" fill="#24272C"/>
<path d="M332.17 26.6395L328.18 20.6895H325.9V30.3995H328.13V24.3695L332.13 30.3995H334.41V20.6895H332.17V26.6395Z" fill="#24272C"/>
<path d="M342.51 30.0497C343.13 29.8197 343.66 29.4897 344.11 29.0597C344.56 28.6297 344.9 28.1197 345.15 27.5197C345.39 26.9197 345.51 26.2597 345.51 25.5397C345.51 24.5797 345.3 23.7397 344.87 23.0097C344.44 22.2797 343.85 21.7097 343.09 21.2997C342.33 20.8897 341.45 20.6797 340.44 20.6797H337.11V30.3897H340.44C341.2 30.3897 341.89 30.2697 342.51 30.0397V30.0497ZM339.41 28.2597V22.8297H340.32C340.87 22.8297 341.35 22.9297 341.77 23.1397C342.19 23.3497 342.51 23.6497 342.74 24.0597C342.97 24.4597 343.09 24.9597 343.09 25.5397C343.09 25.9797 343.02 26.3697 342.89 26.7097C342.76 27.0497 342.57 27.3297 342.32 27.5597C342.07 27.7897 341.78 27.9697 341.44 28.0797C341.1 28.1997 340.73 28.2497 340.31 28.2497H339.4L339.41 28.2597Z" fill="#24272C"/>
<path d="M349.94 26.3395H353.74V24.4895H349.94V22.6895H354.47V20.6895H347.64V30.3995H354.52V28.3795H349.94V26.3395Z" fill="#24272C"/>
<path d="M362.43 21.3095C361.67 20.8995 360.79 20.6895 359.78 20.6895H356.45V30.3995H359.78C360.54 30.3995 361.23 30.2795 361.85 30.0495C362.47 29.8195 363 29.4895 363.45 29.0595C363.9 28.6295 364.24 28.1195 364.49 27.5195C364.73 26.9195 364.85 26.2595 364.85 25.5395C364.85 24.5795 364.64 23.7395 364.21 23.0095C363.78 22.2795 363.19 21.7095 362.43 21.2995V21.3095ZM362.24 26.7095C362.11 27.0495 361.92 27.3295 361.67 27.5595C361.42 27.7895 361.13 27.9695 360.79 28.0795C360.45 28.1995 360.08 28.2495 359.66 28.2495H358.75V22.8195H359.66C360.21 22.8195 360.69 22.9195 361.11 23.1295C361.53 23.3395 361.85 23.6395 362.08 24.0495C362.31 24.4495 362.43 24.9495 362.43 25.5295C362.43 25.9695 362.36 26.3595 362.23 26.6995L362.24 26.7095Z" fill="#24272C"/>
<path d="M252.44 36.54L251.92 36.39C251.69 36.32 251.5 36.25 251.36 36.2C251.22 36.15 251.13 36.08 251.07 36.01C251.01 35.94 250.98 35.86 250.98 35.77C250.98 35.65 251.02 35.54 251.1 35.45C251.18 35.36 251.29 35.29 251.42 35.24C251.55 35.19 251.72 35.17 251.91 35.17C252.1 35.17 252.29 35.19 252.47 35.24C252.65 35.29 252.83 35.35 252.99 35.44C253.15 35.53 253.28 35.62 253.39 35.74L254.08 34.72C253.85 34.49 253.53 34.32 253.15 34.19C252.76 34.06 252.35 34 251.9 34C251.57 34 251.27 34.05 251 34.14C250.73 34.23 250.48 34.36 250.28 34.52C250.08 34.68 249.92 34.88 249.81 35.1C249.7 35.32 249.64 35.57 249.64 35.84C249.64 36.26 249.77 36.61 250.04 36.9C250.31 37.19 250.75 37.43 251.36 37.59L251.87 37.73C252.23 37.83 252.47 37.93 252.6 38.03C252.73 38.13 252.8 38.26 252.8 38.41C252.8 38.6 252.71 38.74 252.52 38.84C252.34 38.94 252.1 38.99 251.81 38.99C251.6 38.99 251.39 38.96 251.17 38.91C250.95 38.86 250.75 38.78 250.55 38.69C250.35 38.6 250.2 38.48 250.07 38.35L249.4 39.4C249.69 39.65 250.05 39.84 250.48 39.98C250.91 40.11 251.34 40.18 251.79 40.18C252.27 40.18 252.69 40.1 253.04 39.94C253.39 39.78 253.66 39.56 253.86 39.27C254.05 38.98 254.15 38.65 254.15 38.28C254.15 37.85 254.01 37.5 253.74 37.23C253.47 36.96 253.03 36.74 252.42 36.56L252.44 36.54Z" fill="#24272C"/>
<path d="M259.11 37.6494C259.11 38.0494 259.01 38.3494 258.81 38.5494C258.61 38.7494 258.34 38.8394 257.98 38.8394C257.62 38.8394 257.35 38.7394 257.15 38.5494C256.95 38.3494 256.85 38.0494 256.85 37.6494V34.1094H255.44V37.5994C255.44 38.0994 255.54 38.5394 255.73 38.9294C255.92 39.3194 256.21 39.6194 256.58 39.8394C256.95 40.0594 257.42 40.1694 257.98 40.1694C258.54 40.1694 259 40.0594 259.38 39.8394C259.76 39.6194 260.04 39.3094 260.23 38.9294C260.42 38.5394 260.52 38.0994 260.52 37.6094V34.1194H259.1V37.6594L259.11 37.6494Z" fill="#24272C"/>
<path d="M265.94 34.3394C265.6 34.1794 265.2 34.1094 264.76 34.1094H262.38V40.0494H263.79V38.0394H264.73C265.22 38.0394 265.64 37.9594 265.98 37.8094C266.32 37.6594 266.59 37.4394 266.77 37.1394C266.95 36.8494 267.04 36.4894 267.04 36.0794C267.04 35.6694 266.94 35.3094 266.74 35.0194C266.54 34.7294 266.27 34.4994 265.93 34.3494L265.94 34.3394ZM265.38 36.6694C265.21 36.7894 264.98 36.8494 264.69 36.8494H263.79V35.3194H264.7C264.98 35.3194 265.21 35.3794 265.38 35.4994C265.55 35.6194 265.64 35.8194 265.64 36.0994C265.64 36.3794 265.56 36.5594 265.39 36.6794L265.38 36.6694Z" fill="#24272C"/>
<path d="M271.87 34.3394C271.53 34.1794 271.13 34.1094 270.69 34.1094H268.31V40.0494H269.72V38.0394H270.66C271.15 38.0394 271.57 37.9594 271.91 37.8094C272.25 37.6594 272.52 37.4394 272.7 37.1394C272.88 36.8494 272.97 36.4894 272.97 36.0794C272.97 35.6694 272.87 35.3094 272.67 35.0194C272.47 34.7294 272.2 34.4994 271.86 34.3494L271.87 34.3394ZM271.31 36.6694C271.14 36.7894 270.91 36.8494 270.62 36.8494H269.72V35.3194H270.63C270.91 35.3194 271.14 35.3794 271.31 35.4994C271.48 35.6194 271.57 35.8194 271.57 36.0994C271.57 36.3794 271.49 36.5594 271.32 36.6794L271.31 36.6694Z" fill="#24272C"/>
<path d="M275.65 34.0996H274.24V40.0396H278.03V38.7496H275.65V34.0996Z" fill="#24272C"/>
<path d="M280.78 37.5496H283.1V36.4296H280.78V35.3196H283.55V34.0996H279.37V40.0396H283.58V38.7996H280.78V37.5496Z" fill="#24272C"/>
<path d="M288.31 37.3696L286.34 34.0996H284.99V40.0396H286.28L286.26 36.3996L287.79 38.9196H288.73L290.19 36.4296L290.17 40.0396H291.53V34.0996H290.19L288.31 37.3696Z" fill="#24272C"/>
<path d="M294.82 37.5496H297.14V36.4296H294.82V35.3196H297.58V34.0996H293.41V40.0396H297.62V38.7996H294.82V37.5496Z" fill="#24272C"/>
<path d="M302.86 37.7396L300.42 34.0996H299.03V40.0396H300.39V36.3496L302.84 40.0396H304.23V34.0996H302.86V37.7396Z" fill="#24272C"/>
<path d="M305.49 35.3896H307.07V40.0396H308.49V35.3896H310.07V34.0996H305.49V35.3896Z" fill="#24272C"/>
<path d="M318.39 38.6697C318.13 38.7497 317.87 38.7897 317.6 38.7897C317.23 38.7897 316.91 38.7197 316.65 38.5797C316.39 38.4397 316.18 38.2497 316.04 37.9897C315.9 37.7297 315.83 37.4197 315.83 37.0697C315.83 36.7997 315.87 36.5697 315.95 36.3497C316.03 36.1297 316.14 35.9597 316.3 35.8097C316.46 35.6597 316.63 35.5497 316.85 35.4597C317.07 35.3697 317.31 35.3397 317.59 35.3397C317.87 35.3397 318.12 35.3797 318.35 35.4597C318.58 35.5397 318.78 35.6697 318.95 35.8397L319.65 34.6897C319.38 34.4597 319.07 34.2797 318.74 34.1597C318.41 34.0397 317.99 33.9697 317.49 33.9697C317.03 33.9697 316.61 34.0497 316.23 34.1997C315.85 34.3497 315.52 34.5697 315.24 34.8397C314.96 35.1197 314.74 35.4497 314.59 35.8297C314.44 36.2097 314.36 36.6297 314.36 37.0897C314.36 37.7197 314.49 38.2597 314.75 38.7197C315.01 39.1797 315.38 39.5397 315.85 39.7897C316.32 40.0397 316.86 40.1697 317.48 40.1697C317.99 40.1697 318.43 40.1097 318.82 39.9797C319.21 39.8497 319.53 39.6797 319.8 39.4697L319.15 38.2897C318.92 38.4697 318.67 38.5997 318.41 38.6797L318.39 38.6697Z" fill="#24272C"/>
<path d="M325.88 34.8697C325.59 34.5897 325.26 34.3697 324.87 34.2097C324.48 34.0497 324.06 33.9697 323.61 33.9697C323.16 33.9697 322.73 34.0497 322.35 34.1997C321.96 34.3597 321.63 34.5697 321.34 34.8497C321.06 35.1297 320.84 35.4597 320.68 35.8297C320.52 36.2097 320.44 36.6097 320.44 37.0597C320.44 37.5097 320.52 37.9097 320.68 38.2797C320.84 38.6597 321.06 38.9797 321.34 39.2597C321.62 39.5397 321.96 39.7597 322.35 39.9197C322.74 40.0797 323.16 40.1497 323.61 40.1497C324.06 40.1497 324.49 40.0697 324.87 39.9197C325.26 39.7597 325.59 39.5397 325.88 39.2597C326.17 38.9797 326.39 38.6497 326.54 38.2797C326.69 37.9097 326.78 37.4997 326.78 37.0597C326.78 36.6197 326.7 36.2197 326.54 35.8497C326.38 35.4797 326.16 35.1497 325.88 34.8597V34.8697ZM325.18 37.7997C325.1 38.0197 324.98 38.2097 324.83 38.3597C324.68 38.5197 324.5 38.6297 324.29 38.7197C324.08 38.8097 323.86 38.8397 323.62 38.8397C323.3 38.8397 323.01 38.7697 322.75 38.6197C322.49 38.4697 322.29 38.2697 322.15 37.9997C322 37.7297 321.93 37.4197 321.93 37.0597C321.93 36.7897 321.97 36.5397 322.06 36.3297C322.15 36.1097 322.26 35.9297 322.41 35.7697C322.56 35.6097 322.74 35.4997 322.95 35.4097C323.16 35.3197 323.38 35.2897 323.62 35.2897C323.95 35.2897 324.24 35.3597 324.49 35.5097C324.74 35.6597 324.94 35.8597 325.09 36.1297C325.24 36.3997 325.31 36.7097 325.31 37.0697C325.31 37.3397 325.27 37.5797 325.18 37.7997Z" fill="#24272C"/>
<path d="M331.61 37.3696L329.64 34.0996H328.29V40.0396H329.58L329.56 36.3996L331.09 38.9196H332.03L333.49 36.4296L333.47 40.0396H334.83V34.0996H333.48L331.61 37.3696Z" fill="#24272C"/>
<path d="M340.27 34.3394C339.93 34.1794 339.53 34.1094 339.09 34.1094H336.71V40.0494H338.12V38.0394H339.06C339.55 38.0394 339.97 37.9594 340.31 37.8094C340.65 37.6594 340.92 37.4394 341.1 37.1394C341.28 36.8494 341.37 36.4894 341.37 36.0794C341.37 35.6694 341.27 35.3094 341.07 35.0194C340.87 34.7294 340.6 34.4994 340.26 34.3494L340.27 34.3394ZM339.71 36.6694C339.54 36.7894 339.31 36.8494 339.02 36.8494H338.12V35.3194H339.03C339.31 35.3194 339.54 35.3794 339.71 35.4994C339.88 35.6194 339.97 35.8194 339.97 36.0994C339.97 36.3794 339.89 36.5594 339.72 36.6794L339.71 36.6694Z" fill="#24272C"/>
<path d="M343.84 34.0996L341.62 40.0396H343.16L343.57 38.8396H345.7L346.12 40.0396H347.71L345.47 34.0996H343.84ZM343.89 37.6596L344.63 35.6096L345.38 37.6596H343.9H343.89Z" fill="#24272C"/>
<path d="M352.74 37.7396L350.3 34.0996H348.91V40.0396H350.27V36.3496L352.72 40.0396H354.11V34.0996H352.74V37.7396Z" fill="#24272C"/>
<path d="M358.06 36.2096L356.82 34.0996H355.24L357.33 37.5596V40.0396H358.74V37.5696L360.82 34.0996H359.28L358.06 36.2096Z" fill="#24272C"/>
<path d="M365.04 35.9396L364.66 34.7896L363.61 35.2296L363.72 34.0996H362.49L362.6 35.2296L361.55 34.7896L361.18 35.9396L362.27 36.2196L361.54 37.0696L362.52 37.7596L363.1 36.7796L363.68 37.7496L364.68 37.0696L363.94 36.2096L365.04 35.9396Z" fill="#24272C"/>
<path d="M13.74 13.6303L20.11 13.6703L20.13 17.3503L22.81 13.5703C22.81 13.5703 29.83 13.5703 30.31 13.5703C31.09 13.5803 31.92 13.8303 32.68 14.4303C33.44 15.0203 33.67 15.7703 33.72 16.6003C33.7 16.2103 33.72 33.2403 33.72 33.2403H27.06V20.3003C27.06 20.3003 27.18 19.3703 26.53 18.8403C25.95 18.3703 25.49 18.3903 25.05 18.3903H20.17V33.1703H13.73V13.6303H13.74Z" fill="#24272C"/>
<path d="M55.97 33.4906H49.53L49.58 29.7706L46.9 33.5506C46.9 33.5506 39.88 33.5506 39.39 33.5506C38.61 33.5306 37.78 33.2906 37.01 32.6906C36.25 32.1006 36.03 31.3506 35.97 30.5206C36 30.9106 35.97 13.8906 35.97 13.8906H42.64V26.8306C42.64 26.8306 42.52 27.7606 43.17 28.2906C43.76 28.7606 44.21 28.7306 44.66 28.7306H49.53V13.9406H55.97V33.4906Z" fill="#24272C"/>
<path d="M126.76 13.9404H120.32V33.4904H126.76V13.9404Z" fill="#24272C"/>
<path d="M138.55 17.9601L141.94 13.8601C141.94 13.8601 147.56 13.7701 148.04 13.7801C148.82 13.8001 149.65 14.0401 150.41 14.6301C151.17 15.2201 151.4 15.9701 151.45 16.8001C151.42 16.4101 151.45 33.4301 151.45 33.4301H144.78V20.4901C144.78 20.4901 144.9 19.5601 144.25 19.0301C143.67 18.5601 143.22 18.5801 142.77 18.5801C142.32 18.5801 138.5 18.5801 138.5 18.5801L138.54 17.9501L138.55 17.9601Z" fill="#24272C"/>
<path d="M57.8699 13.8604H78.5399L75.2899 18.9604H70.3599V33.4604H63.6899V18.9604H57.8699V13.8604Z" fill="#24272C"/>
<path d="M174.54 13.75H181.48L184.23 17.83L187.08 13.75H194.09L187.81 23.16L194.76 33.35H187.76L184.28 28.31L180.98 33.35H173.87L180.76 23.1L174.54 13.75Z" fill="#24272C"/>
<path d="M100.92 19.0199L103.83 13.9199H113.63C114.36 13.9199 116.19 14.1699 117.03 15.1799C117.87 16.1899 118.22 17.0599 118.22 17.9499V33.4599H111.89L111.87 30.4599L109.48 33.4399C109.48 33.4399 105.23 33.4899 104.5 33.4499C103.21 33.3999 99.81 32.7299 99.68 28.6899C99.55 24.6099 100.11 23.6899 101.62 22.5599C102.42 21.9599 103.67 21.6999 104.94 21.6899C107.03 21.6699 110.88 21.6899 110.88 21.6899C110.88 21.6899 112.1 21.4699 111.98 20.2899C111.95 20.0099 112 18.9899 111.1 18.9999C110.17 19.0199 100.9 18.9999 100.9 18.9999L100.92 19.0199ZM106.83 25.5799C106.32 25.6399 105.89 26.1299 105.89 26.8199C105.89 27.5099 105.96 28.1599 106.71 28.3999C107.36 28.5999 111.62 28.4499 111.62 28.4499V25.5399C111.62 25.5399 107.38 25.5299 106.83 25.5899V25.5799Z" fill="#24272C"/>
<path d="M79.28 33.4608V13.9308C79.28 13.9308 91.33 13.8608 93.77 13.9208C97.12 14.0108 98.8 18.0208 98.87 21.3708C98.93 24.2408 98.02 25.9108 96.76 27.1508C95.92 27.9908 94.63 28.9408 94.63 28.9408L100.57 37.7908L101.91 35.7708H108.07L103.81 43.3908L109.13 51.8208H102.38L100.67 49.2208L99.1 51.8008H91.82L96.97 43.7408L85.76 26.2608L85.73 33.4708H79.26L79.28 33.4608ZM85.73 18.7408V24.4508C85.73 24.4508 90.02 24.4608 90.79 24.4508C91.56 24.4408 92.71 24.4108 92.8 21.6108C92.83 20.5208 92.59 18.7808 90.91 18.7408C90.05 18.7208 85.73 18.7408 85.73 18.7408Z" fill="#24272C"/>
<path d="M126.29 18.0002L129.6 14.0202C129.6 14.0202 135.22 13.9302 135.7 13.9402C136.48 13.9602 137.3 14.2002 138.07 14.7902C138.83 15.3802 139.06 16.1402 139.11 16.9602C139.08 16.5702 139.11 33.5902 139.11 33.5902H132.45V20.6502C132.45 20.6502 132.57 19.7202 131.92 19.1902C131.33 18.7202 130.88 18.7402 130.44 18.7402C129.39 18.7402 126.17 18.6902 126.17 18.6902L126.3 17.9802L126.29 18.0002Z" fill="#24272C"/>
<path d="M154.7 18.9604L157.61 13.8604H167.41C168.14 13.8604 169.97 14.1103 170.81 15.1203C171.65 16.1303 172 16.9904 172 17.8904V33.4004H165.67L165.65 30.4104L163.26 33.3904C163.26 33.3904 159.01 33.4304 158.28 33.4004C156.99 33.3404 153.59 32.6804 153.47 28.6404C153.34 24.5704 153.89 23.6403 155.41 22.5103C156.21 21.9103 157.45 21.6504 158.73 21.6404C160.81 21.6304 164.66 21.6404 164.66 21.6404C164.66 21.6404 165.88 21.4204 165.77 20.2404C165.75 19.9604 165.78 18.9404 164.89 18.9504C163.97 18.9704 154.7 18.9504 154.7 18.9504V18.9604ZM160.6 25.5204C160.09 25.5804 159.66 26.0703 159.66 26.7603C159.66 27.4503 159.73 28.1004 160.48 28.3404C161.13 28.5404 165.39 28.3904 165.39 28.3904V25.4804C165.39 25.4804 161.15 25.4703 160.6 25.5303V25.5204Z" fill="#24272C"/>
<path d="M110.9 51.6211V41.6211H112.59V49.9711H115.59V51.6211H110.9Z" fill="#24272C"/>
<path d="M117.97 41.6211H120.06L122.28 51.6211H120.51L120.12 49.5111H117.89L117.5 51.6211H115.73L117.95 41.6211H117.97ZM118.2 47.8611H119.84L119.03 43.3711H119.01L118.2 47.8611Z" fill="#24272C"/>
<path d="M122.87 41.6211H125.7C127.08 41.6211 128.09 42.2411 128.09 44.1511C128.09 45.2311 127.65 46.0611 126.82 46.3411V46.3711C127.75 46.5211 128.35 47.3711 128.35 48.6911C128.35 50.2611 127.7 51.6211 125.73 51.6211H122.88V41.6211H122.87ZM124.56 45.7311H125.05C125.98 45.7311 126.4 45.3511 126.4 44.4111C126.4 43.4711 126.01 43.1111 125.18 43.1111H124.57V45.7311H124.56ZM124.56 50.1411H125.22C126.03 50.1411 126.58 49.7911 126.58 48.6311C126.58 47.4711 126.03 47.1311 125.29 47.1311H124.56V50.1411Z" fill="#24272C"/>
<path d="M132.08 41.4307C134.62 41.4307 134.93 43.5907 134.93 46.6207C134.93 49.6507 134.61 51.8207 132.08 51.8207C129.55 51.8207 129.23 49.6607 129.23 46.6207C129.23 43.5807 129.55 41.4307 132.08 41.4307ZM132.08 50.3307C133.08 50.3307 133.25 49.3107 133.25 46.6207C133.25 43.9307 133.08 42.9107 132.08 42.9107C131.08 42.9107 130.92 43.9507 130.92 46.6207C130.92 49.2907 131.08 50.3307 132.08 50.3307Z" fill="#24272C"/>
<path d="M135.93 41.6211H139.06C140.45 41.6211 141.29 42.4911 141.29 44.2011C141.29 45.5311 140.85 46.4311 139.89 46.6611V46.6911C141.04 46.8711 141.22 47.6311 141.24 49.7511C141.25 50.8011 141.3 51.3511 141.62 51.5411V51.6211H139.79C139.63 51.3411 139.59 50.9611 139.58 50.5711L139.53 48.6511C139.51 47.8711 139.21 47.3911 138.53 47.3911H137.63V51.6211H135.94V41.6211H135.93ZM137.62 45.9911H138.32C139.13 45.9911 139.59 45.5711 139.59 44.4911C139.59 43.5611 139.18 43.1011 138.41 43.1011H137.61V45.9911H137.62Z" fill="#24272C"/>
<path d="M144.1 41.6211H146.19L148.41 51.6211H146.65L146.26 49.5111H144.03L143.65 51.6211H141.89L144.11 41.6211H144.1ZM144.32 47.8611H145.96L145.15 43.3711H145.12L144.31 47.8611H144.32Z" fill="#24272C"/>
<path d="M153.26 41.6211V43.2711H151.43V51.6211H149.73V43.2711H147.9V41.6211H153.26Z" fill="#24272C"/>
<path d="M156.66 41.4307C159.2 41.4307 159.51 43.5907 159.51 46.6207C159.51 49.6507 159.19 51.8207 156.66 51.8207C154.13 51.8207 153.81 49.6607 153.81 46.6207C153.81 43.5807 154.12 41.4307 156.66 41.4307ZM156.66 50.3307C157.65 50.3307 157.82 49.3107 157.82 46.6207C157.82 43.9307 157.65 42.9107 156.66 42.9107C155.67 42.9107 155.5 43.9507 155.5 46.6207C155.5 49.2907 155.67 50.3307 156.66 50.3307Z" fill="#24272C"/>
<path d="M160.52 41.6211H163.64C165.03 41.6211 165.87 42.4911 165.87 44.2011C165.87 45.5311 165.42 46.4311 164.47 46.6611V46.6911C165.62 46.8711 165.8 47.6311 165.82 49.7511C165.83 50.8011 165.88 51.3511 166.2 51.5411V51.6211H164.37C164.2 51.3411 164.16 50.9611 164.15 50.5711L164.11 48.6511C164.09 47.8711 163.8 47.3911 163.11 47.3911H162.21V51.6211H160.52V41.6211ZM162.21 45.9911H162.91C163.72 45.9911 164.18 45.5711 164.18 44.4911C164.18 43.5611 163.77 43.1011 163 43.1011H162.2V45.9911H162.21Z" fill="#24272C"/>
<path d="M167.13 51.6211V41.6211H168.82V51.6211H167.13Z" fill="#24272C"/>
<path d="M174.77 41.6203V43.2704H171.77V45.6203H174.59V47.2704H171.77V49.9604H174.88V51.6104H170.08V41.6104H174.77V41.6203Z" fill="#24272C"/>
<path d="M177.09 48.5007V48.8007C177.09 49.7407 177.31 50.3407 178.2 50.3407C178.72 50.3407 179.21 49.9507 179.21 49.1107C179.21 48.2007 178.82 47.8607 177.7 47.4007C176.2 46.7807 175.51 46.0407 175.51 44.3707C175.51 42.4307 176.51 41.4307 178.1 41.4307C179.6 41.4307 180.7 42.2007 180.7 44.1207V44.4007H179.08C179.08 43.4607 178.81 42.9107 178.16 42.9107C177.4 42.9107 177.2 43.4807 177.2 44.0707C177.2 44.6907 177.35 45.0707 178.07 45.4307L179.37 46.1007C180.64 46.7607 180.97 47.5307 180.97 48.7507C180.97 50.8707 179.89 51.8207 178.06 51.8207C176.23 51.8207 175.39 50.7607 175.39 48.9107V48.5007H177.08H177.09Z" fill="#24272C"/>
<path d="M198.96 13.75C200.62 13.75 201.95 15.1 201.95 16.79C201.95 18.48 200.62 19.85 198.95 19.85C197.28 19.85 195.93 18.51 195.93 16.79C195.93 15.07 197.28 13.75 198.95 13.75H198.96ZM198.94 14.22C197.6 14.22 196.5 15.37 196.5 16.79C196.5 18.21 197.6 19.37 198.95 19.37C200.3 19.38 201.38 18.23 201.38 16.8C201.38 15.37 200.3 14.22 198.95 14.22H198.94ZM198.38 18.56H197.84V15.16C198.12 15.12 198.39 15.08 198.8 15.08C199.31 15.08 199.65 15.19 199.85 15.34C200.05 15.49 200.16 15.72 200.16 16.04C200.16 16.49 199.86 16.76 199.5 16.87V16.9C199.8 16.95 200 17.22 200.07 17.72C200.15 18.25 200.23 18.45 200.29 18.56H199.72C199.64 18.45 199.56 18.14 199.49 17.69C199.41 17.26 199.19 17.09 198.76 17.09H198.38V18.55V18.56ZM198.38 16.68H198.77C199.22 16.68 199.6 16.52 199.6 16.1C199.6 15.8 199.38 15.51 198.77 15.51C198.59 15.51 198.47 15.52 198.38 15.54V16.69V16.68Z" fill="#24272C"/>
</svg>
